<svg viewBox="-0.0647760665503263 -1.2126778064936303 606.1978467966551 650.4226778064937" xmlns="http://www.w3.org/2000/svg" width="2326" height="2500"><path d="M216.85 142.13a102.29 102.29 0 0 1-3.35-83.69c4.14-8.29 19.84-37.17 54.49-51.13a103.08 103.08 0 0 1 49.2-6.72 38.93 38.93 0 0 1 25.18 69.48c-13.68 14.17-26.69 20.66-35.74 24-14.71 5.35-34.28 6.84-53.75 8.58-15.55 1.4-21.43 1.21-27.12 6.1-9.72 8.32-9.81 23.73-8.91 33.38z" fill="#e30613"/><path d="M292.8 80.84l12.21-5.29-6.14-18.71h19.47a18.85 18.85 0 0 1 1.3-12.22 19.2 19.2 0 0 1 11.4-9.77l-4.07-4.08q.6-5.49 1.22-11l-12.63 6.92-3.66-5.7-16.29 11q-2.65-10.57-5.3-21.17l-6.51 9.31-11-4.48v11l-15.88-2.44a35.47 35.47 0 0 1 10.18 10.18 35.07 35.07 0 0 1 4.07 8.55l-15.47-.41c-.14 2.58-.27 5.16-.41 7.74l-14 5.28 5.81 4.9-1.62 5.3a28 28 0 0 1 13.84.81 27.35 27.35 0 0 1 7.33 3.67l2.45 7.73a40.25 40.25 0 0 1 10.58-11.4 39.84 39.84 0 0 1 10.12-5.29z" fill="#fff"/><path d="M357.17 16.06a107.47 107.47 0 0 1 29.25 31.26A52.91 52.91 0 0 1 395.8 69c2.12 6.82 9.22 32.46-3.14 60.67a87 87 0 0 1-33.1 38.3c-1.28.44-11.62 3.86-21.59-2.45-9.7-6.13-11.22-16.51-11.4-17.92a83.75 83.75 0 0 1 .41-34.21c8.27-36.26 38.79-49.92 36.65-78.19a43 43 0 0 0-6.46-19.14z" fill="#077947"/><ellipse cx="362.26" cy="216.51" fill="#fff" rx="34.92" ry="21.31" transform="rotate(-69.12 295.198 173.757)"/><ellipse cx="360.61" cy="217.01" fill="#e30613" rx="29.44" ry="15.86" transform="rotate(-73.7 299.202 174.037)"/><ellipse cx="360.72" cy="221.24" fill="#fff" rx="18.94" ry="9.27" transform="rotate(-73.79 299.064 178.285)"/><path d="M364.43 172.84a125.45 125.45 0 0 1-61.42 20.38c-10.45-.21-33.27-2-53.36-15.73-5.26-3.59-12.73-8.9-18.59-18.69a61.24 61.24 0 0 1-7.32-20.42 63.27 63.27 0 0 1-.73-15.93 24.2 24.2 0 0 1 6.11-9.47c13.89-12.94 42.77-5.46 60 5.7a88.77 88.77 0 0 1 21.18 20c7.4 10 7.52 15 16.29 24 5.09 5.24 10.72 10.88 19.67 12.56a31.14 31.14 0 0 0 18.17-2.4z" fill="#0a3047"/><path d="M258.95 128.06c1.5-2.12 3.12-4.3 4.89-6.52q2.06-2.58 4.07-4.89l4.89 19.55 20.95 11-15.65 6.92a36.18 36.18 0 0 0 6.1 24 32.78 32.78 0 0 1-15.47-7.74 32.41 32.41 0 0 1-7.74-10.54l-17.51 1.22 5.7-13.64-10.18-23z" fill="#fff"/><path d="M256.1 196.84a250.71 250.71 0 0 1 6.11 211.36 145.51 145.51 0 0 0 107.11 0 511 511 0 0 0-48.46-120.54 510.25 510.25 0 0 0-64.76-90.82z" fill="#132e49"/><path d="M256.1 420.46l-10.58 26.07a173.78 173.78 0 0 0 135.2-2l-7.33-24a188.18 188.18 0 0 1-117.29 0z" fill="#0d7247"/><path d="M314.04 243.71l32.68 62.31a215 215 0 0 1 12.34-112.79 101.23 101.23 0 0 0-45 50.48z" fill="#e30613"/><path d="M3.74 513.43h7.86v74.13H3.74zm3.85 0h31.4v9.89H7.59zm0 33H34.8v9.89H7.59zM56.48 587.56h-7.86v-74.13h7.86zM70.35 513.43h7.86v74.13h-7.86zm3.85 0h31.4v9.89H74.2zm0 33h27.16v9.89H74.2zM125.86 513.43h6.71l20.64 74.13h-8.47l-15.53-59.81-15.52 59.81h-8.48zm-11.13 48h29.47v9.89h-29.47zM206.65 513.43h5.39l11.48 58.12 9.9-58.12h8.17l-13.68 74.13h-8l-10.32-51.8-10.79 51.8h-8l-13.7-74.13h8.17l9.9 58.12zM257.12 584.93a21.63 21.63 0 0 1-6.92-9.58 38.94 38.94 0 0 1-2.4-14.35v-21a38.9 38.9 0 0 1 2.44-14.35 21.66 21.66 0 0 1 6.92-9.59 17.42 17.42 0 0 1 20.65 0 21.72 21.72 0 0 1 6.91 9.59 38.9 38.9 0 0 1 2.45 14.35v21a38.94 38.94 0 0 1-2.45 14.35 21.69 21.69 0 0 1-6.91 9.58 17.42 17.42 0 0 1-20.65 0zm16.43-8.92a13.15 13.15 0 0 0 4.08-5.86 24.78 24.78 0 0 0 1.45-8.8v-21.72a24.69 24.69 0 0 0-1.45-8.79 13.1 13.1 0 0 0-4.08-5.86 10 10 0 0 0-12.21 0 13.11 13.11 0 0 0-4.09 5.86 24.69 24.69 0 0 0-1.44 8.79v21.72a24.79 24.79 0 0 0 1.44 8.8 13.17 13.17 0 0 0 4.09 5.86 10.08 10.08 0 0 0 12.21 0zM299.07 513.38h7.86v74.18h-7.86zm3.43 32.93h19.11a6 6 0 0 0 4-1.43 9 9 0 0 0 2.68-4 19.68 19.68 0 0 0 0-12.08 9.09 9.09 0 0 0-2.66-4 6 6 0 0 0-4-1.43H302.5v-9.89h18.8a14.17 14.17 0 0 1 8.53 2.65 16.92 16.92 0 0 1 5.7 7.52 29.05 29.05 0 0 1 2 11.24 28.68 28.68 0 0 1-2.05 11.24 17.1 17.1 0 0 1-5.72 7.52 14.12 14.12 0 0 1-8.49 2.65H302.5zm15.25 7.6l7.82-2.35 14.34 36h-9.33zM350.5 513.43h7.86v74.13h-7.86zm3.93 64.24h32.05v9.89h-32.05zM395.73 513.43h7.86v74.13h-7.86zm5.32 64.24h12.67q6.19 0 9.61-4.26t3.41-12v-21.83c0-5.16-1.14-9.17-3.41-12s-5.48-4.26-9.61-4.26h-12.67v-9.89h12.44a20.7 20.7 0 0 1 11.52 3.11 19.47 19.47 0 0 1 7.28 9.07 37.09 37.09 0 0 1 2.5 14.38v21a37 37 0 0 1-2.5 14.37 19.41 19.41 0 0 1-7.3 9.08 20.8 20.8 0 0 1-11.54 3.11h-12.4zM476.8 584.91a21.91 21.91 0 0 1-6.83-9.69 40 40 0 0 1-2.43-14.53v-20.34a40 40 0 0 1 2.43-14.51 22.12 22.12 0 0 1 6.83-9.72 16.2 16.2 0 0 1 10.23-3.44 15.49 15.49 0 0 1 8.86 2.73 21.48 21.48 0 0 1 6.77 7.72 34.55 34.55 0 0 1 3.67 11.58h-8a19 19 0 0 0-2.44-6.2 13.33 13.33 0 0 0-4-4.2 8.71 8.71 0 0 0-4.78-1.48 9 9 0 0 0-6 2.19 14.14 14.14 0 0 0-4 6.14 27.16 27.16 0 0 0-1.43 9.21v20.34a27.14 27.14 0 0 0 1.43 9.18 14 14 0 0 0 4 6.14 9.24 9.24 0 0 0 10.69.81 12.43 12.43 0 0 0 4-4.08 18.64 18.64 0 0 0 2.44-6.42h8a34.28 34.28 0 0 1-3.6 11.5 21.61 21.61 0 0 1-6.78 7.72 15.47 15.47 0 0 1-8.83 2.73 16.29 16.29 0 0 1-10.23-3.38zM524.23 585.08a19.9 19.9 0 0 1-6.72-9.43 42.76 42.76 0 0 1-2.32-14.91v-47.31h7.86v47.67q0 8.1 3.09 12.54a10 10 0 0 0 8.7 4.43 10.07 10.07 0 0 0 8.77-4.43q3.09-4.44 3.1-12.54v-47.67h7.86v47.31a42.78 42.78 0 0 1-2.31 14.91 19.88 19.88 0 0 1-6.75 9.43 19.09 19.09 0 0 1-21.28 0zM566.9 513.43h7.9v74.13h-7.9zm4 35.48h17.91a6.79 6.79 0 0 0 4.47-1.58 10.09 10.09 0 0 0 3-4.49 19.29 19.29 0 0 0 1.06-6.67 19.48 19.48 0 0 0-1.06-6.73 10.37 10.37 0 0 0-3-4.52 6.75 6.75 0 0 0-4.47-1.6h-17.87v-9.89h17.65a14.41 14.41 0 0 1 8.82 2.83 18.13 18.13 0 0 1 5.91 8 34.85 34.85 0 0 1 0 23.83 18 18 0 0 1-5.91 7.93 14.52 14.52 0 0 1-8.82 2.8h-17.65z" fill="#1d1d1b"/><path d="M4.68 642.71a11.72 11.72 0 0 1-3.48-5.5 27.6 27.6 0 0 1-1.2-8.68v-27.54h4.07v27.75a13.94 13.94 0 0 0 1.6 7.3 5 5 0 0 0 4.51 2.58 5.09 5.09 0 0 0 4.55-2.58 13.85 13.85 0 0 0 1.6-7.3v-27.75h4.08v27.54a27.6 27.6 0 0 1-1.2 8.68 11.67 11.67 0 0 1-3.5 5.5 8.46 8.46 0 0 1-5.53 1.88 8.41 8.41 0 0 1-5.5-1.88zM26.8 600.99h3.69l14.2 33.36-.48.77v-34.13h4v43.13h-3.7l-14.16-32.86.48-.78v33.64H26.8zM59.5 644.15h-4.07v-43.16h4.07zM64.29 600.99H84.8v5.75H64.29zm8.21 3.53h4.07v39.63H72.5zM88.8 600.99h4.08v43.16H88.8zm2 0h16.67v5.75H90.8zm0 18.85h14.48v5.76H90.8zm0 18.56h16.67v5.76H90.8zM113.21 600.99h4.08v43.16h-4.08zm2.76 37.4h6.57a5.77 5.77 0 0 0 5-2.48 11.88 11.88 0 0 0 1.77-7v-12.7a11.92 11.92 0 0 0-1.77-7 5.77 5.77 0 0 0-5-2.48h-6.57v-5.75h6.45a9.81 9.81 0 0 1 6 1.81 11.06 11.06 0 0 1 3.77 5.28 23.85 23.85 0 0 1 1.3 8.37v12.23a23.82 23.82 0 0 1-1.3 8.37 11.09 11.09 0 0 1-3.78 5.29 9.93 9.93 0 0 1-6 1.81h-6.43zM155.8 644a12.18 12.18 0 0 1-3.5-1.78 16.39 16.39 0 0 1-3-3l2.54-4.63a11.56 11.56 0 0 0 3.65 3.2 9 9 0 0 0 4.34 1.07 6 6 0 0 0 6.63-6.65 7 7 0 0 0-.79-3.57 5 5 0 0 0-2-2 16.88 16.88 0 0 0-3.22-1.18.31.31 0 0 0-.13 0 .19.19 0 0 1-.13 0l-.3-.08a23.58 23.58 0 0 1-4.75-1.68 7.68 7.68 0 0 1-3.12-3.42 15.39 15.39 0 0 1-1.3-7 17.34 17.34 0 0 1 1.08-6.94 9.33 9.33 0 0 1 3.52-4.32 10.23 10.23 0 0 1 5.58-1.48 9.54 9.54 0 0 1 3.06.51 12 12 0 0 1 3 1.49 17.65 17.65 0 0 1 2.88 2.51l-2.32 4.79a13.2 13.2 0 0 0-3.3-2.72 6.84 6.84 0 0 0-3.3-.9 6 6 0 0 0-4.63 1.77 7 7 0 0 0-1.64 5 6.31 6.31 0 0 0 .84 3.5 5.22 5.22 0 0 0 2.12 1.88 23.92 23.92 0 0 0 3.52 1.27h.15l.15.05h.22l.22.06a19 19 0 0 1 4.41 1.9 8.37 8.37 0 0 1 3 3.55 15.59 15.59 0 0 1 1.19 6.69v.06a16.41 16.41 0 0 1-1.26 6.76 9.35 9.35 0 0 1-3.64 4.27 10.77 10.77 0 0 1-5.76 1.47 13.31 13.31 0 0 1-4.01-.45zM172.22 600.99h20.48v5.75h-20.48zm8.2 3.53h4.08v39.63h-4.08zM202.8 600.99h3.47l10.7 43.16h-4.39l-8-34.82-8 34.82h-4.4zm-5.77 27.93h15.27v5.76h-15.26zM216.58 600.99h20.49v5.75h-20.49zm8.21 3.53h4.07v39.63h-4.06zM241.06 600.99h4.08v43.16h-4.08zm2 0h16.67v5.75h-16.69zm0 18.84h14.48v5.76h-14.5zm0 18.56h16.67v5.76h-16.69zM270.26 644a12.24 12.24 0 0 1-3.51-1.78 16.34 16.34 0 0 1-3-3l2.53-4.63a11.59 11.59 0 0 0 3.66 3.2 8.93 8.93 0 0 0 4.33 1.07 6 6 0 0 0 6.63-6.65 7 7 0 0 0-.79-3.57 5 5 0 0 0-2-2 16.62 16.62 0 0 0-3.22-1.18.31.31 0 0 0-.13 0 .19.19 0 0 1-.13 0l-.3-.08a23.24 23.24 0 0 1-4.74-1.68 7.64 7.64 0 0 1-3.13-3.42 15.52 15.52 0 0 1-1.3-7 17.52 17.52 0 0 1 1.21-6.85 9.29 9.29 0 0 1 3.53-4.32 10.17 10.17 0 0 1 5.57-1.48 9.45 9.45 0 0 1 3.06.51 12 12 0 0 1 3 1.49 17.65 17.65 0 0 1 2.88 2.51l-2.41 4.7a13.41 13.41 0 0 0-3.31-2.72 6.84 6.84 0 0 0-3.3-.9 6 6 0 0 0-4.63 1.77 7.07 7.07 0 0 0-1.64 5 6.23 6.23 0 0 0 .85 3.5 5.19 5.19 0 0 0 2.11 1.88 23.69 23.69 0 0 0 3.53 1.27h.15l.15.05h.22l.21.06a19 19 0 0 1 4.46 2.09 8.3 8.3 0 0 1 2.95 3.55 15.59 15.59 0 0 1 1.19 6.69v.06a16.41 16.41 0 0 1-1.26 6.76 9.35 9.35 0 0 1-3.64 4.27 10.77 10.77 0 0 1-5.76 1.47 13.24 13.24 0 0 1-4.02-.64z" fill="#132e49"/><path d="M290.08 595.84h5.27v53.37h-5.27z" fill="#1d1d1b"/><path d="M306.15 642.6a12.71 12.71 0 0 1-3.55-5.64 25.88 25.88 0 0 1-1.26-8.46v-11.84a25.88 25.88 0 0 1 1.26-8.46 12.9 12.9 0 0 1 3.55-5.66 7.81 7.81 0 0 1 5.3-2 7.44 7.44 0 0 1 4.59 1.59 12 12 0 0 1 3.5 4.5 21.67 21.67 0 0 1 1.91 6.73h-4.17a12.08 12.08 0 0 0-1.27-3.6 7.3 7.3 0 0 0-2.09-2.45 4.14 4.14 0 0 0-2.47-.86 4.37 4.37 0 0 0-3.12 1.27 8.39 8.39 0 0 0-2.07 3.58 17.31 17.31 0 0 0-.74 5.36v11.84a17.43 17.43 0 0 0 .74 5.35 8.23 8.23 0 0 0 2.07 3.57 4.4 4.4 0 0 0 3.12 1.26 4.32 4.32 0 0 0 2.48-.8 6.69 6.69 0 0 0 2.08-2.37 11.93 11.93 0 0 0 1.27-3.74h4.17a21.55 21.55 0 0 1-1.92 6.74 12.11 12.11 0 0 1-3.51 4.49 7.41 7.41 0 0 1-4.57 1.59 7.8 7.8 0 0 1-5.3-1.99zM333.95 600.99h3.48l10.7 43.16h-4.4l-8-34.82-8.05 34.82h-4.39zm-5.77 27.93h15.28v5.76h-15.28zM352.52 600.99h3.69l14.2 33.36-.48.77v-34.13h4v43.13h-3.74l-14.16-32.86.48-.78v33.64h-4zM388.66 600.99h3.47l10.67 43.16h-4.4l-8-34.82-8.05 34.82h-4.39zm-5.77 27.93h15.28v5.76h-15.28zM407.23 600.99h4.07v43.16h-4.07zm2.76 37.4h6.56a5.78 5.78 0 0 0 5-2.48 12 12 0 0 0 1.76-7v-12.7a12 12 0 0 0-1.76-7 5.78 5.78 0 0 0-5-2.48h-6.56v-5.75h6.44a9.87 9.87 0 0 1 6 1.81 11.13 11.13 0 0 1 3.77 5.28 24.09 24.09 0 0 1 1.3 8.37v12.23a24 24 0 0 1-1.3 8.37 11.17 11.17 0 0 1-3.79 5.29 9.9 9.9 0 0 1-6 1.81h-6.43zM440.8 600.99h3.48l10.7 43.16h-4.39l-8.05-34.82-8 34.82h-4.4zm-5.77 27.93h15.28v5.76H435z" fill="#e30613"/><path d="M458.8 595.84h5.27v53.37h-5.27z" fill="#1d1d1b"/><path d="M491.47 600.99h3.82v43.16h-4v-32.31l.2 1.9-7.15 24.43h-2.83l-7.15-23.84.2-2.49v32.33h-4v-43.18h3.81l8.53 28.49zM502.47 600.99h4.08v43.16h-4.08zm2 0h16.67v5.75h-16.69zm0 18.84h14.48v5.76h-14.5zm0 18.56h16.67v5.76h-16.69zm5.83-43.88l5.5-7.27 2.64 4.07-5.89 6.71zM533.8 619.48l7.29-18.49h4.57l-9.6 23.36-7.79 19.8h-4.57zm.18 5.7l-.62-1.49-9.42-22.7h4.57l7 17.57.66 1.6 9.92 24h-4.57zM554.59 644.15h-4.08v-43.16h4.08zM565.98 642.6a12.71 12.71 0 0 1-3.55-5.64 26.16 26.16 0 0 1-1.25-8.46v-11.84a26.16 26.16 0 0 1 1.25-8.46 12.9 12.9 0 0 1 3.55-5.66 7.81 7.81 0 0 1 5.3-2 7.44 7.44 0 0 1 4.59 1.59 12.15 12.15 0 0 1 3.51 4.5 21.67 21.67 0 0 1 1.9 6.73h-4.17a11.81 11.81 0 0 0-1.27-3.6 7.4 7.4 0 0 0-2.08-2.45 4.17 4.17 0 0 0-2.48-.86 4.35 4.35 0 0 0-3.11 1.27 8.3 8.3 0 0 0-2.08 3.58 17.62 17.62 0 0 0-.74 5.36v11.84a17.74 17.74 0 0 0 .74 5.35 8.14 8.14 0 0 0 2.08 3.57 4.38 4.38 0 0 0 5.6.46 6.77 6.77 0 0 0 2.07-2.37 11.68 11.68 0 0 0 1.27-3.74h4.17a21.82 21.82 0 0 1-1.91 6.74 12.23 12.23 0 0 1-3.52 4.49 7.38 7.38 0 0 1-4.57 1.59 7.8 7.8 0 0 1-5.3-1.99zM590.53 642.62a12.69 12.69 0 0 1-3.59-5.58 25.34 25.34 0 0 1-1.26-8.36v-12.23a25.34 25.34 0 0 1 1.26-8.36 12.69 12.69 0 0 1 3.59-5.58 8.25 8.25 0 0 1 10.7 0 12.67 12.67 0 0 1 3.58 5.58 25.07 25.07 0 0 1 1.27 8.36v12.23a25.07 25.07 0 0 1-1.28 8.36 12.67 12.67 0 0 1-3.58 5.58 8.25 8.25 0 0 1-10.7 0zm8.51-5.2a7.67 7.67 0 0 0 2.12-3.41 16 16 0 0 0 .75-5.12v-12.65a16 16 0 0 0-.75-5.12 7.67 7.67 0 0 0-2.12-3.41 4.77 4.77 0 0 0-6.33 0 7.74 7.74 0 0 0-2.11 3.41 16 16 0 0 0-.75 5.12v12.65a16 16 0 0 0 .75 5.12 7.74 7.74 0 0 0 2.11 3.41 4.77 4.77 0 0 0 6.33 0z" fill="#077947"/><path d="M257.71 504.29l11.52-18a14 14 0 0 0 1.56-3.21 9.71 9.71 0 0 0 .55-3.09v-.05a5.12 5.12 0 0 0-1.16-3.59 4.21 4.21 0 0 0-3.29-1.27 4.17 4.17 0 0 0-3.27 1.39 6.85 6.85 0 0 0-1.53 4h-4.79a16.08 16.08 0 0 1 1.67-5.68 9.23 9.23 0 0 1 3.26-3.58 8.53 8.53 0 0 1 4.61-1.24 10.22 10.22 0 0 1 5 1.18 7.75 7.75 0 0 1 3.18 3.44 12.44 12.44 0 0 1 1.09 5.45 13.59 13.59 0 0 1-.73 4.27 19.4 19.4 0 0 1-2 4.31l-9.58 15.22h12.5V509h-18.59zM284.65 506.5q-2.4-2.89-2.4-8.08v-17.58c0-3.47.8-6.16 2.41-8.09s3.95-2.88 7-2.88 5.44 1 7 2.87 2.39 4.62 2.39 8.1v17.56q0 5.2-2.41 8.09t-7 2.88q-4.59.02-6.99-2.87zm10.66-3.76a6.9 6.9 0 0 0 1.17-4.32v-17.58a7 7 0 0 0-1.16-4.31 5.15 5.15 0 0 0-7.27 0 6.89 6.89 0 0 0-1.16 4.31v17.56a6.9 6.9 0 0 0 1.17 4.32 5.13 5.13 0 0 0 7.25 0zM307.43 504.29l11.52-18a14 14 0 0 0 1.56-3.21 9.71 9.71 0 0 0 .55-3.09v-.05a5.16 5.16 0 0 0-1.15-3.59 4.25 4.25 0 0 0-3.3-1.27 4.17 4.17 0 0 0-3.27 1.39 6.78 6.78 0 0 0-1.52 4h-4.8a16.08 16.08 0 0 1 1.67-5.68 9.23 9.23 0 0 1 3.26-3.58 8.53 8.53 0 0 1 4.61-1.24 10.19 10.19 0 0 1 5.05 1.18 7.75 7.75 0 0 1 3.18 3.44 12.44 12.44 0 0 1 1.09 5.45 13.59 13.59 0 0 1-.73 4.27 19 19 0 0 1-2 4.31l-9.59 15.22h12.5V509h-18.63zM334.15 508.03a8.45 8.45 0 0 1-3.14-4 16.52 16.52 0 0 1-1.08-6.31 25 25 0 0 1 .43-4.52 29 29 0 0 1 1.25-4.65c.09-.27.19-.53.29-.78s.22-.51.32-.76l7.18-16.63h5l-8.43 19.26v-1a4.45 4.45 0 0 1 1.66-1.94 4.68 4.68 0 0 1 2.55-.69 7.27 7.27 0 0 1 4.41 1.36 8.36 8.36 0 0 1 2.79 3.94 18 18 0 0 1 1 6.23 16.87 16.87 0 0 1-1.08 6.37 8.54 8.54 0 0 1-3.16 4 9.75 9.75 0 0 1-10 0zm8.38-5.44a7.48 7.48 0 0 0 1.19-4.54 8.57 8.57 0 0 0-1.25-5 4.1 4.1 0 0 0-3.57-1.77 3.58 3.58 0 0 0-3.2 1.78 9.31 9.31 0 0 0-1.14 5 7.4 7.4 0 0 0 1.2 4.53 4.4 4.4 0 0 0 6.77 0z" fill="#1d1d1b"/></svg>